# File created by Blade
# Date/Time:  Thu Jan 22 19:08:58 2015
# Frame Rate: 120.000 fps
#------------------------------------------------------
:FULLY-SPECIFIED
:DEGREES
2288
root -2.343450 33.219451 -0.346428 7.526350 -2.976288 2.601074
RightUpLeg -0.558182 -9.574658 -3.487192
RightLeg -2.230754 -0.000000 0.000000
RightFoot -9.049008 -3.814344 5.333084
RightToeBase 5.622566 -0.000000 -0.000000
LeftUpLeg -0.386871 6.528996 2.895145
LeftLeg 0.096604 -0.000000 -0.000000
LeftFoot -8.624972 -0.546158 -12.034852
LeftToeBase 7.165769 -0.000000 -0.000000
Spine -9.551502 -1.641736 -1.741080
RightShoulder -18.236950 -1.225745 -41.565310
RightArm 20.293094 36.748236 21.509145
RightForeArm -13.288721 -0.000000 11.058051
RightHand 12.815243 -0.000000 0.867723
RightHandThumb1 -24.326973 -0.000000 -32.862282
LeftShoulder -24.274006 -2.457179 43.169180
LeftArm 16.456808 -38.965008 -19.675027
LeftForeArm 23.773479 -0.000000 2.623446
LeftHand -0.067657 -0.000000 -2.031506
LeftHandThumb1 -26.253704 0.000000 33.147579
Head -0.760536 8.699607 0.977087
2289
root -2.341482 33.219362 -0.354821 7.561789 -2.989081 2.605613
RightUpLeg -0.608608 -9.546616 -3.487747
RightLeg -2.237893 -0.000000 0.000000
RightFoot -9.037169 -3.835153 5.320130
RightToeBase 5.576456 -0.000000 -0.000000
LeftUpLeg -0.442337 6.546647 2.882609
LeftLeg 0.111966 -0.000000 -0.000000
LeftFoot -8.623204 -0.561438 -12.027738
LeftToeBase 7.154398 -0.000000 -0.000000
Spine -9.528526 -1.645746 -1.713967
RightShoulder -18.219026 -1.443641 -41.200534
RightArm 20.213861 36.318894 21.864101
RightForeArm -13.324633 -0.000000 10.880181
RightHand 12.760950 0.000000 0.847149
RightHandThumb1 -24.326973 -0.000000 -32.862282
LeftShoulder -24.243448 -2.439975 42.973779
LeftArm 15.879076 -38.339586 -19.903972
LeftForeArm 23.729469 -0.000000 2.569122
LeftHand -0.111923 -0.000000 -1.963681
LeftHandThumb1 -26.253704 0.000000 33.147579
Head -0.821806 8.604825 0.864956
2290
root -2.339469 33.218671 -0.362426 7.589774 -3.005486 2.607843
RightUpLeg -0.646867 -9.524457 -3.486501
RightLeg -2.253944 -0.000000 0.000000
RightFoot -9.029039 -3.848635 5.312522
RightToeBase 5.660236 -0.000000 -0.000000
LeftUpLeg -0.489872 6.603360 2.865415
LeftLeg 0.119451 -0.000000 -0.000000
LeftFoot -8.628953 -0.585969 -12.092458
LeftToeBase 7.149682 -0.000000 -0.000000
Spine -9.495758 -1.652701 -1.672809
RightShoulder -18.216965 -1.641558 -40.877558
RightArm 20.179321 35.976638 22.315608
RightForeArm -13.394750 -0.000000 10.749147
RightHand 12.704332 -0.000000 1.148093
RightHandThumb1 -24.326973 -0.000000 -32.862282
LeftShoulder -24.269426 -1.606817 42.262445
LeftArm 15.898051 -38.625437 -20.311041
LeftForeArm 23.491706 -0.000000 2.379047
LeftHand 0.120270 -0.000000 -1.990222
LeftHandThumb1 -26.253704 0.000000 33.147579
Head -0.937461 8.545309 0.749237
2291
root -2.337036 33.218677 -0.370173 7.620406 -3.029273 2.611027
RightUpLeg -0.694310 -9.474242 -3.489704
RightLeg -2.259251 -0.000000 0.000000
RightFoot -9.023955 -3.881105 5.327050
RightToeBase 5.579851 -0.000000 -0.000000
LeftUpLeg -0.537472 6.613864 2.851388
LeftLeg 0.134339 -0.000000 -0.000000
LeftFoot -8.638840 -0.575786 -12.070586
LeftToeBase 7.181090 -0.000000 -0.000000
Spine -9.469670 -1.642822 -1.641628
RightShoulder -18.153304 -1.882933 -40.483414
RightArm 20.053844 35.646195 22.638357
RightForeArm -13.291130 -0.000000 10.625029
RightHand 12.777484 -0.000000 0.974908
RightHandThumb1 -24.326973 -0.000000 -32.862282
LeftShoulder -24.221019 -2.289236 42.524110
LeftArm 14.890494 -37.263613 -20.516203
LeftForeArm 23.359441 -0.000000 2.375869
LeftHand 0.142336 0.000000 -1.799044
LeftHandThumb1 -26.253704 0.000000 33.147579
Head -1.067341 8.533790 0.669226
2292
root -2.336153 33.217865 -0.376983 7.659366 -3.050545 2.615398
RightUpLeg -0.739551 -9.436192 -3.488976
RightLeg -2.283115 -0.000000 0.000000
RightFoot -9.007836 -3.903112 5.313670
RightToeBase 5.546823 -0.000000 -0.000000
LeftUpLeg -0.590209 6.600796 2.848263
LeftLeg 0.162979 -0.000000 -0.000000
LeftFoot -8.650428 -0.590662 -12.008629
LeftToeBase 7.134073 -0.000000 -0.000000
Spine -9.443507 -1.638011 -1.608242
RightShoulder -18.135484 -2.167082 -40.132798
RightArm 20.017096 35.487756 23.147529
RightForeArm -13.307213 0.000000 10.578155
RightHand 12.714995 0.000000 1.102333
RightHandThumb1 -24.326973 -0.000000 -32.862282
LeftShoulder -24.317065 -0.611043 41.289523
LeftArm 15.557419 -38.282581 -21.078819
LeftForeArm 23.069028 -0.000000 2.009322
LeftHand 0.467572 -0.000000 -1.965814
LeftHandThumb1 -26.253704 0.000000 33.147579
Head -1.208151 8.509945 0.561353
2293
root -2.333979 33.216952 -0.385151 7.700712 -3.068191 2.622368
RightUpLeg -0.796942 -9.406487 -3.491191
RightLeg -2.290570 -0.000000 0.000000
RightFoot -9.009894 -3.925759 5.312441
RightToeBase 5.561775 -0.000000 -0.000000
LeftUpLeg -0.653041 6.623624 2.823188
LeftLeg 0.171373 -0.000000 -0.000000
LeftFoot -8.671011 -0.566107 -12.062715
LeftToeBase 7.230392 -0.000000 -0.000000
Spine -9.425724 -1.637593 -1.568226
RightShoulder -18.097411 -2.357760 -39.787649
RightArm 19.944263 35.170112 23.540322
RightForeArm -13.293386 -0.000000 10.477741
RightHand 12.536614 0.000000 1.359527
RightHandThumb1 -24.326973 -0.000000 -32.862282
LeftShoulder -24.321907 -0.393656 41.000234
LeftArm 15.218439 -37.958849 -21.519103
LeftForeArm 23.166759 -0.000000 1.938298
LeftHand 0.335441 -0.000000 -2.019985
LeftHandThumb1 -26.253704 0.000000 33.147579
Head -1.318667 8.443180 0.452862
2294
root -2.332615 33.216653 -0.392190 7.738392 -3.092240 2.623032
RightUpLeg -0.843612 -9.374111 -3.490231
RightLeg -2.308725 -0.000000 0.000000
RightFoot -8.997026 -3.930071 5.312870
RightToeBase 5.623006 -0.000000 -0.000000
LeftUpLeg -0.704389 6.629112 2.813705
LeftLeg 0.182287 -0.000000 -0.000000
LeftFoot -8.678128 -0.562848 -12.086094
LeftToeBase 7.200550 -0.000000 -0.000000
Spine -9.414420 -1.599265 -1.542577
RightShoulder -18.068597 -2.611378 -39.407744
RightArm 19.886836 34.922421 23.913492
RightForeArm -13.361112 0.000000 10.295923
RightHand 12.894189 -0.000000 1.213557
RightHandThumb1 -24.326973 -0.000000 -32.862282
LeftShoulder -24.328827 -0.483869 40.882983
LeftArm 14.822808 -37.473525 -21.984512
LeftForeArm 23.253916 -0.000000 1.779619
LeftHand 0.286124 -0.000000 -1.826878
LeftHandThumb1 -26.253704 0.000000 33.147579
Head -1.405874 8.272278 0.378025
2295
root -2.329929 33.216145 -0.399327 7.774495 -3.120248 2.631162
RightUpLeg -0.884088 -9.330495 -3.499321
RightLeg -2.337811 -0.000000 0.000000
RightFoot -8.978924 -3.943769 5.307371
RightToeBase 5.605807 -0.000000 -0.000000
LeftUpLeg -0.754764 6.624816 2.792991
LeftLeg 0.200982 -0.000000 -0.000000
LeftFoot -8.704379 -0.532144 -12.030614
LeftToeBase 7.229683 -0.000000 -0.000000
Spine -9.405468 -1.580395 -1.504346
RightShoulder -18.023578 -2.837191 -39.086048
RightArm 19.844367 34.452880 24.279370
RightForeArm -13.244114 0.000000 10.129368
RightHand 12.652799 -0.000000 1.498902
RightHandThumb1 -24.326973 -0.000000 -32.862282
LeftShoulder -24.328207 -0.248945 40.562462
LeftArm 14.535374 -37.159979 -22.424650
LeftForeArm 23.229057 0.000000 1.645334
LeftHand 0.210596 -0.000000 -1.789792
LeftHandThumb1 -26.253704 0.000000 33.147579
Head -1.454262 8.254064 0.297697
2296
root -2.328354 33.215187 -0.406196 7.819530 -3.146576 2.642391
RightUpLeg -0.930483 -9.313041 -3.504665
RightLeg -2.376618 -0.000000 0.000000
RightFoot -8.964676 -3.950071 5.297677
RightToeBase 5.629520 -0.000000 -0.000000
LeftUpLeg -0.816177 6.635401 2.773571
LeftLeg 0.213948 -0.000000 -0.000000
LeftFoot -8.695814 -0.540637 -12.075404
LeftToeBase 7.211476 -0.000000 -0.000000
Spine -9.413327 -1.563491 -1.491379
RightShoulder -17.922279 -3.095263 -38.713891
RightArm 19.716775 34.171701 24.615925
RightForeArm -12.921298 0.000000 10.017767
RightHand 12.833610 0.000000 1.871132
RightHandThumb1 -24.326973 -0.000000 -32.862282
LeftShoulder -24.339344 -0.040565 40.315505
LeftArm 14.254322 -36.878346 -22.926262
LeftForeArm 23.120143 0.000000 1.497301
LeftHand 0.370216 0.000000 -1.808799
LeftHandThumb1 -26.253704 0.000000 33.147579
Head -1.504302 8.195905 0.266476
